# xmcd CD database file
#
# Track frame offsets:
#	162
#	15977
#	32070
#	51447
#	70075
#	88900
#	104167
#	117092
#	133805
#	147665
#	162182
#
# Disc length: 2381 seconds
#
# Revision: 1
# Processed by: cddbd v1.5.1PL0 Copyright (c) Steve Scherf et al.
# Submitted via: CDex 1.51
#
DISCID=9f094b0b
DTITLE=Brooks and Dunn - Borderline
DYEAR=1996
DGENRE=Country
TTITLE0=My Maria
TTITLE1=A Man This Lonely
TTITLE2=Why Would I Say Goodbye
TTITLE3=Mama Don't Get Dressed Up For Nothing
TTITLE4=I Am That Man
TTITLE5=More Than A Margarita
TTITLE6=Redneck Rhythm and Blues
TTITLE7=My Love Will Follow You
TTITLE8=One Heartache At A Time
TTITLE9=Tequilla Town
TTITLE10=White Line Casanova
EXTD=YEAR: 1996
EXTT0=
EXTT1=
EXTT2=
EXTT3=
EXTT4=
EXTT5=
EXTT6=
EXTT7=
EXTT8=
EXTT9=
EXTT10=
PLAYORDER=
